# xmcd CD database file
#
# Track frame offsets:
#	150
#	17939
#	32835
#	49200
#	65287
#	86360
#	110081
#	123963
#	139815
#	161335
#	184895
#
# Disc length: 2700 seconds
#
# Revision: 4
# Processed by: cddbd v1.5.1PL2 Copyright (c) Steve Scherf et al.
# Submitted via: CDex 1.51
#
DISCID=930a8a0b
DTITLE=Wet Willie - The Best Of Wet Willie
DYEAR=2003
DGENRE=Rock
TTITLE0=Keep On Smilin'
TTITLE1=Shame Shame Shame
TTITLE2=Shout Bamalama
TTITLE3=Airport
TTITLE4=Leona
TTITLE5=Everything That 'cha Do (Will Come Back To You)
TTITLE6=Grits Aint Groceries
TTITLE7=Country Side Of Life
TTITLE8=Red Hot Chicken
TTITLE9=Dixie Rock
TTITLE10=Baby Fat
EXTD=YEAR: 2003
EXTT0=
EXTT1=
EXTT2=
EXTT3=
EXTT4=
EXTT5=
EXTT6=
EXTT7=
EXTT8=
EXTT9=
EXTT10=
PLAYORDER=
